<svg width="341" height="70" viewBox="0 0 341 70" fill="none" xmlns="http://www.w3.org/2000/svg">
<g clip-path="url(#clip0_3490_102)">
<path d="M9.00122 0V31.4659H48.7711V0H57.7724V69.7507H48.7711V39.2819H9.00122V69.7507H0V0H9.00819H9.00122Z" fill="#0C0C0C"/>
<path d="M89.322 0H137.8V7.71832H98.3232V31.0685H132.85V38.5916H98.3232V62.0394H137.8V69.7577H89.322V0Z" fill="#0C0C0C"/>
<path d="M165.864 63.5245V0H174.872V62.0324H209.796V69.7507H172.104C168.15 69.7507 165.87 67.5754 165.87 63.5175L165.864 63.5245Z" fill="#0C0C0C"/>
<path d="M330.166 69.7507L310.19 38.5846H307.715L287.725 69.7507H277.532L300.185 34.8266L277.532 0H287.725L307.61 30.8733H310.288L330.172 0H340.366L317.615 34.8266L340.366 69.7507H330.172H330.166Z" fill="#0C0C0C"/>
<path d="M246.387 0H237.483V69.7507H246.387V0Z" fill="#0C0C0C"/>
</g>
<defs>
<clipPath id="clip0_3490_102">
<rect width="341" height="70" fill="white"/>
</clipPath>
</defs>
</svg>
